<?xml version="1.0" standalone="no"?>
<!DOCTYPE svg PUBLIC "-//W3C//DTD SVG 20010904//EN"
 "http://www.w3.org/TR/2001/REC-SVG-20010904/DTD/svg10.dtd">
<svg version="1.0" xmlns="http://www.w3.org/2000/svg"
 width="261.000000pt" height="261.000000pt" viewBox="0 0 261.000000 261.000000"
 preserveAspectRatio="xMidYMid meet">
<metadata>
Created by potrace 1.11, written by Peter Selinger 2001-2013
</metadata>
<g transform="translate(0.000000,261.000000) scale(0.100000,-0.100000)"
fill="#000000" stroke="none">
<path d="M1151 2512 c-14 -11 -13 -11 7 -2 15 7 22 8 22 0 0 -13 -22 -22 -58
-24 -15 -1 -33 -5 -41 -10 -9 -6 -12 -5 -8 1 3 5 0 10 -8 10 -8 0 -12 -3 -10
-7 6 -10 -11 -31 -26 -33 -8 -2 -20 -7 -28 -11 -10 -7 -12 -5 -6 3 6 10 3 11
-14 2 -11 -7 -21 -14 -21 -17 0 -3 4 -3 8 0 5 3 9 -1 9 -8 0 -7 -6 -13 -14
-13 -7 0 -13 4 -13 9 0 4 -4 8 -10 8 -5 0 -10 -7 -10 -16 0 -14 -3 -14 -15 -4
-15 13 -20 5 -16 -27 1 -8 -10 -13 -30 -13 -27 0 -30 -2 -19 -15 14 -17 -2
-27 -50 -29 -26 -1 -33 -11 -7 -11 5 0 12 -5 14 -12 3 -8 -3 -11 -16 -8 -17 3
-21 -1 -21 -21 0 -24 -18 -29 -32 -9 -4 6 -8 -5 -8 -24 0 -28 -3 -33 -20 -28
-16 4 -20 0 -20 -19 0 -17 -6 -24 -20 -24 -13 0 -20 -7 -20 -20 0 -14 -7 -20
-22 -20 -12 0 -18 -3 -15 -6 9 -9 -12 -46 -23 -39 -5 3 -12 0 -16 -6 -4 -8 -3
-9 4 -5 7 4 12 1 12 -9 0 -9 -4 -13 -10 -10 -9 5 -15 -15 -11 -37 0 -5 -8 -8
-20 -8 -12 0 -19 -5 -16 -12 2 -7 11 -12 18 -10 8 2 10 0 6 -5 -5 -4 -12 -8
-15 -8 -18 -1 -49 -30 -45 -42 3 -7 1 -13 -5 -13 -5 0 -7 -11 -4 -25 2 -15 0
-25 -7 -25 -6 0 -11 5 -11 11 0 5 -5 7 -11 3 -8 -4 -4 -11 11 -19 l23 -13 -21
-6 c-12 -4 -23 -16 -23 -27 -1 -10 -3 -23 -4 -29 -1 -5 -3 -15 -4 -21 0 -5 -5
-8 -11 -4 -5 3 -7 13 -4 23 5 15 4 15 -6 -1 -6 -10 -10 -28 -8 -40 2 -12 -4
-29 -12 -37 -9 -8 -10 -11 -3 -6 10 7 12 3 9 -15 -3 -13 -5 -30 -5 -37 -1 -7
-6 -10 -11 -7 -6 4 -7 11 -4 17 4 7 2 8 -5 4 -6 -4 -9 -12 -6 -17 4 -5 0 -9
-7 -9 -9 0 -9 -3 2 -10 8 -5 10 -10 5 -10 -6 0 -10 -24 -11 -52 0 -47 -2 -53
-19 -50 -17 2 -17 1 -5 -7 8 -6 15 -24 16 -40 0 -23 -4 -28 -18 -26 -10 2 -21
-1 -24 -7 -4 -7 -2 -8 4 -4 7 4 12 2 12 -3 0 -6 -6 -11 -12 -11 -7 0 -5 -5 5
-11 13 -7 15 -14 8 -23 -5 -6 -8 -24 -7 -39 2 -18 -1 -27 -11 -27 -10 0 -11 5
-3 19 7 15 7 19 -5 17 -8 -1 -18 -6 -22 -11 -4 -4 -2 -5 5 -1 6 4 12 2 12 -3
0 -6 -4 -11 -9 -11 -11 0 -2 -81 12 -98 7 -9 7 -16 -2 -25 -10 -9 -11 -8 -6 6
4 9 3 17 -3 17 -6 0 -9 -8 -7 -17 1 -10 9 -17 18 -17 10 1 13 -4 10 -14 -5
-11 -3 -13 7 -7 9 5 11 4 6 -4 -6 -8 -12 -9 -20 -2 -19 16 -26 3 -15 -26 11
-31 11 -36 -1 -28 -6 3 -7 -1 -4 -9 3 -9 11 -16 18 -16 6 0 4 -5 -4 -11 -12
-8 -10 -9 9 -4 18 5 22 4 16 -6 -6 -9 -3 -11 9 -6 10 4 15 3 11 -3 -3 -6 -13
-10 -21 -10 -8 0 -14 -5 -14 -11 0 -5 5 -7 11 -3 8 5 10 -4 7 -28 -2 -22 1
-35 8 -35 7 0 11 8 9 18 -3 13 1 16 12 12 11 -4 11 -8 3 -13 -8 -5 -9 -10 -1
-14 7 -5 7 -15 1 -31 -6 -16 -6 -25 1 -25 6 0 6 -7 -1 -20 -9 -16 -8 -22 4
-26 12 -5 13 -11 5 -25 -9 -18 -1 -23 31 -21 3 0 6 -15 7 -34 1 -24 -2 -32
-10 -28 -8 5 -8 3 1 -7 6 -7 12 -27 13 -43 0 -25 2 -27 8 -12 12 30 28 -9 34
-77 1 -16 3 -16 13 -3 12 17 24 11 24 -11 0 -8 -5 -11 -12 -8 -7 4 -6 1 2 -7
9 -7 14 -20 12 -30 -2 -9 2 -19 8 -23 7 -4 10 0 8 10 -2 10 3 19 10 21 7 1 8
0 2 -3 -8 -3 -7 -9 1 -19 6 -8 8 -14 5 -14 -4 0 -2 -9 4 -20 6 -11 16 -17 25
-14 8 4 15 1 15 -6 0 -6 -4 -8 -10 -5 -5 3 -10 1 -10 -5 0 -6 -5 -8 -12 -4 -7
4 -8 3 -4 -4 4 -6 13 -9 21 -5 9 3 15 -1 15 -11 0 -9 5 -16 11 -16 5 0 7 6 3
13 -5 8 -2 8 9 -2 9 -7 17 -26 17 -42 0 -15 5 -31 12 -35 7 -5 9 -1 6 13 -3
12 0 20 8 20 7 0 13 -3 12 -6 -3 -35 4 -61 18 -61 13 0 14 3 5 13 -8 10 -7 14
3 14 8 0 13 -8 11 -18 -2 -10 3 -23 11 -30 12 -10 12 -14 2 -22 -9 -6 -7 -7 6
-3 11 4 27 -1 39 -11 11 -10 17 -12 13 -5 -4 6 -3 12 3 12 5 0 11 -10 13 -22
2 -17 9 -22 25 -20 12 2 25 -2 29 -9 4 -7 3 -9 -3 -6 -5 3 -10 0 -10 -9 0 -9
7 -12 19 -8 10 3 18 1 18 -4 0 -5 10 -9 23 -8 16 1 21 -4 19 -16 -2 -11 3 -18
13 -18 10 0 14 5 10 13 -4 6 -1 5 7 -3 7 -8 25 -15 40 -14 18 1 25 -3 21 -13
-4 -10 -9 -11 -18 -3 -10 8 -15 8 -21 -1 -4 -7 -3 -9 4 -5 6 3 13 2 17 -4 3
-5 13 -10 21 -10 10 0 12 5 8 12 -6 10 -3 9 8 0 9 -7 42 -14 72 -15 35 -1 50
-5 41 -10 -9 -4 -19 -6 -23 -3 -4 2 -14 0 -22 -6 -13 -8 -12 -9 2 -5 9 3 19 3
23 -1 10 -10 29 -9 37 3 5 6 8 6 8 -2 0 -9 39 -12 150 -11 108 0 148 4 143 12
-4 6 1 5 11 -3 14 -12 19 -12 26 -2 6 11 8 11 12 1 5 -17 64 2 60 19 -1 7 14
11 40 11 24 0 52 8 63 17 16 12 16 14 3 10 -10 -3 -20 -2 -23 3 -4 6 13 10 41
10 41 0 46 2 41 19 -3 14 0 19 12 18 32 -2 71 14 71 28 0 9 9 15 24 15 19 0
23 4 19 19 -3 10 1 22 8 26 8 5 10 4 5 -3 -4 -7 -3 -12 3 -12 5 0 13 5 16 10
4 6 11 8 16 5 5 -4 9 1 9 10 0 10 -5 13 -12 9 -7 -5 -8 -3 -3 6 6 10 11 9 23
-6 12 -16 14 -16 9 -2 -3 10 -2 20 4 23 5 4 6 11 3 17 -4 7 -2 8 5 4 6 -4 9
-12 6 -17 -3 -5 1 -6 10 -3 13 5 13 9 3 22 -10 12 -10 14 0 8 7 -4 12 -2 12 5
0 6 8 9 19 6 13 -3 18 1 17 16 -1 12 6 21 17 23 24 3 31 10 18 19 -6 3 -11 1
-11 -5 0 -6 -4 -8 -10 -5 -17 11 -11 24 9 20 11 -2 26 4 33 13 10 12 10 14 1
8 -8 -4 -13 -1 -13 8 0 9 5 16 11 16 5 0 7 5 3 12 -4 7 -3 8 5 4 6 -4 9 -12 6
-17 -4 -5 -1 -9 4 -9 9 0 15 33 13 70 0 3 6 11 14 18 17 15 18 8 4 -18 -8 -16
-8 -18 5 -14 8 4 16 15 16 25 1 10 2 28 3 39 0 10 7 25 15 32 9 8 11 8 7 1 -3
-6 -1 -15 5 -19 8 -5 10 1 7 20 -3 14 -1 26 3 26 5 0 8 3 8 8 -3 17 2 32 10
32 6 0 8 -9 6 -20 -2 -11 0 -18 5 -15 5 3 7 14 5 25 -2 11 2 20 8 20 7 0 6 4
-3 10 -9 6 -10 10 -3 10 7 0 10 10 7 24 -3 17 1 25 16 29 19 5 27 39 21 86 -2
8 2 10 10 5 8 -5 9 -3 3 7 -12 20 -13 60 -1 52 6 -4 8 1 4 11 -5 12 -3 16 5
13 14 -5 14 -11 3 -40 -4 -10 -3 -17 5 -17 6 0 9 4 6 8 -2 4 -1 14 4 22 4 7 4
24 -1 38 -9 22 -7 24 13 19 19 -5 21 -4 8 6 -14 11 -16 19 -11 45 1 4 6 0 11
-8 8 -13 11 -13 22 -1 7 8 8 11 3 8 -6 -3 -19 1 -30 9 -10 8 -13 14 -7 14 7 0
12 5 12 11 0 5 -4 8 -8 5 -5 -3 -9 1 -9 9 0 8 4 15 8 15 11 0 20 -30 12 -42
-3 -6 -2 -8 4 -5 14 9 11 212 -4 212 -6 0 -15 3 -18 7 -4 4 5 5 21 3 16 -2 24
-2 18 1 -5 2 -9 19 -8 37 4 42 -5 69 -18 61 -7 -4 -8 -2 -4 4 4 7 3 12 -1 12
-5 0 -9 9 -9 19 0 15 3 17 13 9 7 -6 10 -14 7 -19 -3 -5 -1 -9 5 -9 5 0 9 9 8
19 0 11 -4 18 -7 16 -11 -7 -25 22 -25 52 0 29 -3 32 -23 28 -18 -3 -21 -1
-14 8 6 7 10 16 10 22 0 5 6 11 12 13 9 3 9 -1 0 -19 -10 -23 -10 -23 4 -5 18
22 11 39 -12 31 -13 -4 -17 2 -18 25 -1 16 2 27 7 25 4 -3 2 7 -6 22 -9 16
-11 31 -5 38 11 13 1 29 -20 33 -10 1 -9 -2 4 -13 21 -16 10 -21 -13 -6 -13 8
-13 12 0 27 8 10 9 15 3 11 -11 -6 -15 16 -15 88 0 15 -2 16 -8 6 -5 -8 -7
-26 -4 -40 4 -25 -6 -25 -11 1 -2 7 -6 20 -9 28 -3 8 -5 22 -6 30 0 30 -8 51
-24 71 -9 10 -17 28 -17 39 0 11 -3 19 -7 19 -25 -4 -33 4 -33 35 0 38 -14 55
-24 30 -3 -8 -2 -12 4 -9 6 3 10 1 10 -4 0 -6 -7 -11 -15 -11 -9 0 -15 6 -14
13 1 6 1 25 0 41 -1 23 -5 27 -21 23 -16 -4 -20 0 -20 23 0 22 -4 27 -18 23
-13 -3 -18 2 -20 22 -1 15 -6 33 -10 42 -8 13 -10 13 -15 -1 -5 -11 -3 -15 5
-10 7 4 8 3 4 -5 -10 -15 -29 -3 -22 15 3 8 1 14 -4 14 -6 0 -9 3 -9 8 4 23
-4 32 -28 32 -21 0 -24 3 -15 12 13 13 16 29 5 27 -31 -5 -45 2 -40 21 3 11 1
18 -3 15 -5 -3 -15 2 -23 10 -17 16 -32 21 -23 7 3 -5 -1 -9 -9 -9 -18 0 -20
23 -2 30 6 3 2 6 -10 7 -13 2 -29 3 -35 4 -7 0 -14 11 -16 23 -2 13 -8 20 -17
17 -7 -3 -16 0 -20 6 -6 9 -10 9 -16 -1 -6 -10 -11 -6 -18 13 -8 20 -16 26
-31 23 -16 -3 -20 0 -16 10 3 9 0 12 -9 8 -8 -3 -12 -10 -8 -16 3 -6 1 -7 -5
-3 -7 4 -12 15 -12 25 0 14 -6 17 -25 13 -16 -3 -25 0 -25 8 0 9 -3 10 -13 1
-17 -13 -27 -5 -21 17 5 14 4 14 -6 0 -13 -21 -42 -24 -34 -4 3 7 -3 17 -13
20 -10 4 -19 2 -21 -3 -2 -6 -9 -8 -15 -4 -22 13 -209 9 -226 -5z m250 -15
c-10 -9 -11 -8 -5 6 3 10 9 15 12 12 3 -3 0 -11 -7 -18z m-191 3 c0 -5 -2 -10
-4 -10 -3 0 -8 5 -11 10 -3 6 -1 10 4 10 6 0 11 -4 11 -10z m-285 -128 c-3 -3
-11 0 -18 7 -9 10 -8 11 6 5 10 -3 15 -9 12 -12z m882 -77 c0 -8 -4 -12 -9 -9
-4 3 -8 9 -8 15 0 5 4 9 8 9 5 0 9 -7 9 -15z m88 -74 c3 -5 0 -13 -6 -17 -7
-4 -9 -3 -5 4 3 5 0 13 -6 15 -9 4 -10 6 -1 6 6 1 14 -3 18 -8z m199 -292 c-3
-5 -10 -7 -15 -3 -5 3 -7 10 -3 15 3 5 10 7 15 3 5 -3 7 -10 3 -15z m-1570 -4
c-4 -8 -8 -15 -10 -15 -2 0 -4 7 -4 15 0 8 4 15 10 15 5 0 7 -7 4 -15z m1606
-40 c11 -13 10 -14 -4 -9 -9 3 -16 10 -16 15 0 13 6 11 20 -6z m5 -35 c3 -6
-1 -7 -9 -4 -18 7 -21 14 -7 14 6 0 13 -4 16 -10z m159 -506 c5 -14 4 -15 -9
-4 -17 14 -19 20 -6 20 5 0 12 -7 15 -16z m-5 -28 c9 -11 9 -16 -1 -22 -7 -4
-10 -4 -6 1 4 4 3 14 -3 22 -6 7 -9 13 -6 13 2 0 10 -6 16 -14z m-1970 -29 c8
-10 7 -17 -1 -25 -8 -8 -8 -16 3 -29 13 -16 12 -17 -3 -4 -11 8 -16 22 -14 37
3 12 -1 25 -7 28 -8 3 -9 5 -1 5 6 1 16 -5 23 -12z m1973 -83 c-9 -16 -10 -14
-9 8 1 15 6 23 11 18 4 -4 4 -16 -2 -26z m4 -68 c0 -14 -6 -22 -14 -19 -9 4
-9 9 -2 18 5 6 7 15 3 18 -3 4 -2 7 4 7 6 0 10 -11 9 -24z m-1974 -3 c-6 -2
-9 -10 -5 -16 11 -18 12 -37 3 -37 -5 0 -12 5 -15 10 -3 6 -1 10 6 10 10 0 10
3 1 12 -17 17 -15 28 6 27 10 0 12 -3 4 -6z m1891 -334 c-8 -8 -13 -7 -18 2
-5 8 -4 10 3 5 7 -4 12 -2 12 5 0 7 3 9 7 6 4 -4 2 -12 -4 -18z m-1768 -77
c-3 -3 -11 0 -18 7 -9 10 -8 11 6 5 10 -3 15 -9 12 -12z m1529 -320 c3 -5 -1
-9 -9 -9 -8 0 -12 4 -9 9 3 4 7 8 9 8 2 0 6 -4 9 -8z m-1244 -84 c0 -4 -4 -8
-9 -8 -6 0 -12 4 -15 8 -3 5 1 9 9 9 8 0 15 -4 15 -9z m1037 -83 c0 -8 -4 -12
-9 -9 -5 3 -6 10 -3 15 9 13 12 11 12 -6z m-232 -115 c3 -5 2 -10 -4 -10 -5 0
-18 -3 -28 -7 -16 -6 -16 -5 -4 10 15 19 27 22 36 7z"/>
<path d="M1016 2468 c3 -5 10 -6 15 -3 13 9 11 12 -6 12 -8 0 -12 -4 -9 -9z"/>
<path d="M1646 2442 c-3 -5 1 -9 9 -9 8 0 12 4 9 9 -3 4 -7 8 -9 8 -2 0 -6 -4
-9 -8z"/>
<path d="M1970 2150 c0 -5 5 -10 11 -10 5 0 7 5 4 10 -3 6 -8 10 -11 10 -2 0
-4 -4 -4 -10z"/>
<path d="M335 1483 c3 -3 -3 -12 -13 -20 -9 -8 -11 -12 -4 -8 6 3 12 1 12 -5
0 -6 4 -9 9 -6 10 7 9 32 -2 41 -4 3 -5 2 -2 -2z"/>
<path d="M293 1373 c0 -7 4 -13 7 -13 4 0 12 6 18 13 8 10 6 13 -7 13 -10 0
-18 -6 -18 -13z"/>
<path d="M340 950 c-9 -6 -10 -10 -3 -10 6 0 15 5 18 10 8 12 4 12 -15 0z"/>
<path d="M375 799 c-10 -15 3 -25 16 -12 7 7 7 13 1 17 -6 3 -14 1 -17 -5z"/>
<path d="M2130 589 c0 -5 5 -7 10 -4 6 3 10 8 10 11 0 2 -4 4 -10 4 -5 0 -10
-5 -10 -11z"/>
</g>
</svg>
